<svg width="129" height="128" viewBox="0 0 129 128" fill="none" xmlns="http://www.w3.org/2000/svg">
<g filter="url(#filter0_d_112_15)">
<path d="M85.9794 84.0944C92.9489 64.5429 99.3516 25.3766 80.4408 18.6355C61.53 11.8945 40.8265 45.963 33.857 65.5146" stroke="#00C8FF" stroke-width="5"/>
<rect x="9.6183" y="73.6321" width="94.8521" height="4.09497" rx="2.04749" transform="rotate(19.6194 9.6183 73.6321)" fill="#00C8FF" stroke="#00C8FF"/>
<rect x="-0.296897" y="0.695864" width="3.4633" height="29.9376" rx="1.73165" transform="matrix(0.304576 0.952488 -0.89837 0.43924 36.8575 61.9564)" fill="#00C8FF" stroke="#00C8FF"/>
<path d="M85.2154 81.3239C84.4224 81.866 84.1219 83.0048 84.5443 83.8674L95.9371 107.135C96.3595 107.998 97.3449 108.258 98.1378 107.716C98.9308 107.174 99.2313 106.035 98.8089 105.172L87.4161 81.9045C86.9937 81.0419 86.0084 80.7819 85.2154 81.3239Z" fill="#00C8FF" stroke="#00C8FF"/>
<path d="M68.6064 96.9754C65.2249 106.461 55.7465 111.75 47.4358 108.787C39.1251 105.825 35.1291 95.7333 38.5106 86.2473" stroke="#00C8FF" stroke-width="5"/>
<path d="M80.3328 21.2733C86.518 23.8803 90.6852 29.76 92.3772 37.2412C94.0689 44.7212 93.272 53.7617 89.5564 62.5771C85.8407 71.3924 79.9258 78.2758 73.3901 82.288C66.8535 86.3006 59.735 87.4225 53.5499 84.8155C47.3651 82.2085 43.1981 76.3297 41.5061 68.8489C39.8143 61.3689 40.6113 52.3284 44.3269 43.513C48.0426 34.6976 53.9575 27.8143 60.4932 23.8021C67.0297 19.7894 74.1478 18.6665 80.3328 21.2733Z" fill="#00C8FF" stroke="#00C8FF"/>
<path d="M74.4213 44.9234C79.5366 47.0795 82.7888 52.5224 83.8171 59.7378C84.8437 66.9419 83.6318 75.8212 79.9094 84.6527C76.187 93.484 70.6774 100.551 64.8038 104.847C58.9208 109.149 52.7537 110.622 47.6384 108.466C42.5231 106.31 39.2708 100.867 38.2426 93.6512C37.2161 86.4472 38.4276 77.5686 42.15 68.7372C45.8724 59.9057 51.3822 52.838 57.2559 48.5424C63.1389 44.24 69.3061 42.7673 74.4213 44.9234Z" fill="#00C8FF" stroke="#00C8FF"/>
<path d="M92.5535 102.115L17.0349 75.83L67.4695 50.3192L92.5535 102.115Z" fill="#00C8FF" stroke="#00C8FF"/>
<path d="M81.2204 63.9208L87.9558 65.8521L85.8649 74.2251L84.6429 78.678L84.6397 78.6893L83.6795 82.5304L35.6878 66.5051L38.6583 58.5011L38.668 58.4744L38.6746 58.4479L40.2453 52.1587L81.2204 63.9208Z" fill="#00C8FF" stroke="#00C8FF"/>
</g>
<defs>
<filter id="filter0_d_112_15" x="4.31125" y="15.2653" width="99.157" height="104.855" filterUnits="userSpaceOnUse" color-interpolation-filters="sRGB">
<feFlood flood-opacity="0" result="BackgroundImageFix"/>
<feColorMatrix in="SourceAlpha" type="matrix" values="0 0 0 0 0 0 0 0 0 0 0 0 0 0 0 0 0 0 127 0" result="hardAlpha"/>
<feOffset dy="4"/>
<feGaussianBlur stdDeviation="2"/>
<feComposite in2="hardAlpha" operator="out"/>
<feColorMatrix type="matrix" values="0 0 0 0 0 0 0 0 0 0 0 0 0 0 0 0 0 0 0.25 0"/>
<feBlend mode="normal" in2="BackgroundImageFix" result="effect1_dropShadow_112_15"/>
<feBlend mode="normal" in="SourceGraphic" in2="effect1_dropShadow_112_15" result="shape"/>
</filter>
</defs>
</svg>
