<svg width="77" height="83" viewBox="0 0 77 83" fill="none" xmlns="http://www.w3.org/2000/svg">
<g filter="url(#filter0_d_112_40)">
<rect x="0.452501" y="0.492905" width="41.4938" height="3.75975" rx="1.87988" transform="matrix(0.999953 -0.00967231 -0.094952 0.995482 30.6391 15.047)" fill="#00C8FF" stroke="#00C8FF"/>
<rect x="0.452501" y="0.492905" width="40.2055" height="3.75975" rx="1.87988" transform="matrix(0.999953 -0.00967231 -0.094952 0.995482 27.9561 29.3111)" fill="#00C8FF" stroke="#00C8FF"/>
<rect x="30.9822" y="15.612" width="2.43269" height="49.6494" rx="1.21635" transform="rotate(15.5634 30.9822 15.612)" fill="#00C8FF" stroke="#00C8FF"/>
<rect x="70.5196" y="15.9595" width="2.14616" height="49.6531" rx="1.07308" transform="rotate(15.5634 70.5196 15.9595)" fill="#00C8FF" stroke="#00C8FF"/>
<mask id="path-5-inside-1_112_40" fill="white">
<ellipse cx="12.7648" cy="59.9344" rx="8.5733" ry="10.9114" transform="rotate(15.5634 12.7648 59.9344)"/>
</mask>
<path d="M21.0238 62.2346L11.3904 59.5516C11.1364 60.4636 10.6999 60.8716 10.6175 60.9321C10.5914 60.9513 10.7332 60.8389 11.0783 60.7609C11.4488 60.6772 11.9642 60.6575 12.5203 60.8124L9.83724 70.4457L7.15419 80.0791C19.0707 83.398 28.1973 73.7497 30.6571 64.9177L21.0238 62.2346ZM9.83724 70.4457L12.5203 60.8124C13.0763 60.9672 13.5074 61.2505 13.7813 61.5137C14.0364 61.7589 14.0997 61.9284 14.0873 61.8985C14.048 61.8041 13.8852 61.2291 14.1392 60.3171L4.50588 57.6341L-5.12746 54.9511C-7.58732 63.7831 -4.76228 76.7601 7.15419 80.0791L9.83724 70.4457ZM4.50588 57.6341L14.1392 60.3171C14.3932 59.4051 14.8297 58.9971 14.9122 58.9366C14.9383 58.9175 14.7965 59.0298 14.4513 59.1078C14.0808 59.1915 13.5654 59.2112 13.0094 59.0563L15.6924 49.423L18.3755 39.7897C6.459 36.4707 -2.6676 46.1191 -5.12746 54.9511L4.50588 57.6341ZM15.6924 49.423L13.0094 59.0563C12.4533 58.9015 12.0223 58.6182 11.7484 58.355C11.4932 58.1098 11.43 57.9403 11.4424 57.9702C11.4817 58.0646 11.6444 58.6396 11.3904 59.5516L21.0238 62.2346L30.6571 64.9177C33.117 56.0857 30.2919 43.1086 18.3755 39.7897L15.6924 49.423Z" fill="#00C8FF" mask="url(#path-5-inside-1_112_40)"/>
<mask id="path-7-inside-2_112_40" fill="white">
<ellipse cx="51.8646" cy="60.8485" rx="8.5733" ry="10.9114" transform="rotate(15.5634 51.8646 60.8485)"/>
</mask>
<path d="M60.1235 63.1488L50.4902 60.4657C50.2362 61.3777 49.7997 61.7857 49.7172 61.8463C49.6911 61.8654 49.8329 61.753 50.1781 61.675C50.5486 61.5913 51.064 61.5717 51.62 61.7265L48.937 71.3599L46.2539 80.9932C58.1704 84.3121 67.297 74.6638 69.7569 65.8318L60.1235 63.1488ZM48.937 71.3599L51.62 61.7265C52.1761 61.8814 52.6071 62.1647 52.881 62.4278C53.1361 62.673 53.1994 62.8425 53.187 62.8127C53.1477 62.7182 52.9849 62.1433 53.239 61.2313L43.6056 58.5483L33.9723 55.8652C31.5124 64.6972 34.3375 77.6743 46.2539 80.9932L48.937 71.3599ZM43.6056 58.5483L53.239 61.2313C53.493 60.3193 53.9295 59.9113 54.0119 59.8508C54.038 59.8316 53.8962 59.944 53.5511 60.022C53.1806 60.1057 52.6652 60.1254 52.1091 59.9705L54.7922 50.3372L57.4752 40.7038C45.5587 37.3849 36.4321 47.0332 33.9723 55.8652L43.6056 58.5483ZM54.7922 50.3372L52.1091 59.9705C51.5531 59.8156 51.122 59.5324 50.8481 59.2692C50.593 59.024 50.5297 58.8545 50.5421 58.8844C50.5814 58.9788 50.7442 59.5537 50.4902 60.4657L60.1235 63.1488L69.7569 65.8318C72.2167 56.9998 69.3917 44.0227 57.4752 40.7038L54.7922 50.3372Z" fill="#00C8FF" mask="url(#path-7-inside-2_112_40)"/>
</g>
<defs>
<filter id="filter0_d_112_40" x="0" y="14.6523" width="76.869" height="64.9586" filterUnits="userSpaceOnUse" color-interpolation-filters="sRGB">
<feFlood flood-opacity="0" result="BackgroundImageFix"/>
<feColorMatrix in="SourceAlpha" type="matrix" values="0 0 0 0 0 0 0 0 0 0 0 0 0 0 0 0 0 0 127 0" result="hardAlpha"/>
<feOffset dy="4"/>
<feGaussianBlur stdDeviation="2"/>
<feComposite in2="hardAlpha" operator="out"/>
<feColorMatrix type="matrix" values="0 0 0 0 0 0 0 0 0 0 0 0 0 0 0 0 0 0 0.25 0"/>
<feBlend mode="normal" in2="BackgroundImageFix" result="effect1_dropShadow_112_40"/>
<feBlend mode="normal" in="SourceGraphic" in2="effect1_dropShadow_112_40" result="shape"/>
</filter>
</defs>
</svg>
