<svg width="79" height="70" viewBox="0 0 79 70" fill="none" xmlns="http://www.w3.org/2000/svg">
<g filter="url(#filter0_d_112_53)">
<path d="M21.3742 4.96359C35.384 -3.385 54.1698 -0.99724 65.4718 10.5841C76.9676 22.3719 77.1651 40.0298 65.8819 51.702C55.2536 62.6949 37.5747 65.1047 23.655 57.7744L22.8958 57.3607L7.81595 59.285L7.67878 59.294L7.55825 59.3079L7.49731 59.3027L7.42137 59.3134L7.29273 59.3024L7.17985 59.3066L7.10905 59.2971L7.0309 59.2938L6.92007 59.274L6.80159 59.2638L6.72829 59.2438L6.6544 59.2305L6.53797 59.1964L6.42434 59.1694L6.37135 59.1511L6.29157 59.127L6.13039 59.0579L6.05061 59.0338L6.01484 59.0135L5.94242 58.9832L5.79595 58.9016L5.69792 58.8517L5.66244 58.828L5.61681 58.8034L5.51715 58.7327L5.37185 58.6374L5.32092 58.595L5.20329 58.4952L5.0758 58.3911L5.0702 58.3768L5.02884 58.3422L4.89501 58.1926L4.81624 58.1168L4.79798 58.0911L4.6266 57.8623L4.5867 57.8106L4.55357 57.7594L4.43797 57.5561L4.39615 57.4869L4.38215 57.4512L4.26139 57.1888L4.24121 57.1457L4.23002 57.1171L4.20984 57.0739L4.17359 56.9396L4.11821 56.7898L4.10936 56.7338L4.09875 56.6984L4.05909 56.4844L4.04068 56.4207L4.03831 56.3687L4.02695 56.3021L4.01971 56.1875L4.00494 56.0412L4.00727 55.9344L4.00004 55.8992L4.00474 55.8444L4.00703 55.6581L4.02098 55.535L4.03111 55.4565L4.05342 55.2754L4.0743 55.1908L4.07987 55.1257L4.11722 55.008L4.14411 54.893L4.16691 54.8258L4.18631 54.7584L4.26484 54.558L4.27881 54.5143L9.18366 43.0214L9.12004 42.8882C2.73777 29.404 7.48842 13.7751 20.5497 5.47313L21.3742 4.96359Z" fill="#00C8FF"/>
</g>
<defs>
<filter id="filter0_d_112_53" x="0" y="0" width="78.2205" height="69.9757" filterUnits="userSpaceOnUse" color-interpolation-filters="sRGB">
<feFlood flood-opacity="0" result="BackgroundImageFix"/>
<feColorMatrix in="SourceAlpha" type="matrix" values="0 0 0 0 0 0 0 0 0 0 0 0 0 0 0 0 0 0 127 0" result="hardAlpha"/>
<feOffset dy="4"/>
<feGaussianBlur stdDeviation="2"/>
<feComposite in2="hardAlpha" operator="out"/>
<feColorMatrix type="matrix" values="0 0 0 0 0 0 0 0 0 0 0 0 0 0 0 0 0 0 0.25 0"/>
<feBlend mode="normal" in2="BackgroundImageFix" result="effect1_dropShadow_112_53"/>
<feBlend mode="normal" in="SourceGraphic" in2="effect1_dropShadow_112_53" result="shape"/>
</filter>
</defs>
</svg>
