<svg width="108" height="83" viewBox="0 0 108 83" fill="none" xmlns="http://www.w3.org/2000/svg">
<g filter="url(#filter0_d_1_494)">
<path d="M16.8431 14.2316L98.4606 39.5592C99.7793 39.9684 100.517 41.3691 100.107 42.6878L98.4466 48.0395C95.582 57.2701 85.7769 62.4311 76.5463 59.5667L23.5809 43.1305C14.3502 40.266 9.18949 30.4608 12.0537 21.2301L13.7145 15.8784C14.1237 14.5597 15.5244 13.8224 16.8431 14.2316Z" stroke="black" stroke-width="5"/>
<path d="M76.0517 29.9876C77.8276 24.2648 74.628 18.1858 68.9051 16.4099L54.3119 11.8813C48.589 10.1054 42.5101 13.3051 40.7342 19.0279" stroke="black" stroke-width="5"/>
<path d="M18.0427 41.3722C15.5626 49.3645 20.031 57.854 28.0233 60.3342L64.1717 71.5518C72.164 74.0319 80.6536 69.5635 83.1337 61.5712" stroke="black" stroke-width="5"/>
</g>
<defs>
<filter id="filter0_d_1_494" x="4.76226" y="8.89038" width="101.959" height="73.8468" filterUnits="userSpaceOnUse" color-interpolation-filters="sRGB">
<feFlood flood-opacity="0" result="BackgroundImageFix"/>
<feColorMatrix in="SourceAlpha" type="matrix" values="0 0 0 0 0 0 0 0 0 0 0 0 0 0 0 0 0 0 127 0" result="hardAlpha"/>
<feOffset dy="4"/>
<feGaussianBlur stdDeviation="2"/>
<feComposite in2="hardAlpha" operator="out"/>
<feColorMatrix type="matrix" values="0 0 0 0 0 0 0 0 0 0 0 0 0 0 0 0 0 0 0.25 0"/>
<feBlend mode="normal" in2="BackgroundImageFix" result="effect1_dropShadow_1_494"/>
<feBlend mode="normal" in="SourceGraphic" in2="effect1_dropShadow_1_494" result="shape"/>
</filter>
</defs>
</svg>
