<svg width="64" height="70" viewBox="0 0 64 70" fill="none" xmlns="http://www.w3.org/2000/svg">
<g filter="url(#filter0_d_1_516)">
<rect x="27.9413" y="26.5158" width="7.6496" height="31.3326" rx="3.5" transform="rotate(-21.5434 27.9413 26.5158)" stroke="black" stroke-width="3"/>
<rect x="35.1654" y="7.35421" width="7.6496" height="46.5027" rx="3.5" transform="rotate(-21.5434 35.1654 7.35421)" stroke="black" stroke-width="3"/>
<rect x="21.8898" y="48.648" width="7.6496" height="12.9686" rx="3.5" transform="rotate(-21.5434 21.8898 48.648)" stroke="black" stroke-width="3"/>
<path d="M30.2264 4.5496C29.9763 4.08991 29.3607 3.94185 28.8514 4.2189L20.5511 8.73378C20.0418 9.01084 19.8316 9.60809 20.0816 10.0678C20.3317 10.5275 20.9473 10.6755 21.4566 10.3985L28.8346 6.38527L32.4567 13.0441C32.7067 13.5038 33.3223 13.6519 33.8317 13.3748C34.341 13.0977 34.5512 12.5005 34.3012 12.0408L30.2264 4.5496ZM13.3401 50.4108L14.3124 50.6447L30.2764 5.2851L29.3041 5.05126L28.3319 4.81742L12.3678 50.177L13.3401 50.4108Z" fill="black"/>
</g>
<defs>
<filter id="filter0_d_1_516" x="8.3678" y="4.07927" width="55.4495" height="65.092" filterUnits="userSpaceOnUse" color-interpolation-filters="sRGB">
<feFlood flood-opacity="0" result="BackgroundImageFix"/>
<feColorMatrix in="SourceAlpha" type="matrix" values="0 0 0 0 0 0 0 0 0 0 0 0 0 0 0 0 0 0 127 0" result="hardAlpha"/>
<feOffset dy="4"/>
<feGaussianBlur stdDeviation="2"/>
<feComposite in2="hardAlpha" operator="out"/>
<feColorMatrix type="matrix" values="0 0 0 0 0 0 0 0 0 0 0 0 0 0 0 0 0 0 0.25 0"/>
<feBlend mode="normal" in2="BackgroundImageFix" result="effect1_dropShadow_1_516"/>
<feBlend mode="normal" in="SourceGraphic" in2="effect1_dropShadow_1_516" result="shape"/>
</filter>
</defs>
</svg>
