<svg width="237" height="186" viewBox="0 0 237 186" fill="none" xmlns="http://www.w3.org/2000/svg">
<path d="M9.52441 3.08203C9.67409 2.62138 10.3259 2.62138 10.4756 3.08203L11.5449 6.37305C11.7457 6.99108 12.3218 7.41015 12.9717 7.41016H16.4326C16.917 7.41016 17.1184 8.02975 16.7266 8.31445L13.9268 10.3486C13.4011 10.7305 13.1812 11.4075 13.3818 12.0254L14.4512 15.3174C14.6008 15.778 14.0735 16.1616 13.6816 15.877L10.8818 13.8418C10.3561 13.4599 9.64386 13.4599 9.11816 13.8418L6.31836 15.877C5.9265 16.1616 5.39915 15.778 5.54883 15.3174L6.61816 12.0254C6.81877 11.4075 6.59887 10.7305 6.07324 10.3486L3.27344 8.31445C2.88158 8.02975 3.08302 7.41016 3.56738 7.41016H7.02832C7.67816 7.41016 8.25427 6.99108 8.45508 6.37305L9.52441 3.08203Z" stroke="black"/>
<path d="M225.634 94.5854C225.972 94.2385 226.557 94.5269 226.487 95.0062L225.99 98.4307C225.897 99.0738 226.228 99.7045 226.811 99.992L229.915 101.523C230.349 101.737 230.256 102.382 229.778 102.464L226.367 103.05C225.727 103.16 225.23 103.67 225.137 104.312L224.639 107.738C224.57 108.217 223.927 108.328 223.702 107.899L222.091 104.835C221.789 104.26 221.15 103.945 220.51 104.055L217.098 104.642C216.621 104.724 216.318 104.146 216.656 103.799L219.071 101.32C219.524 100.855 219.627 100.15 219.324 99.5753L217.713 96.5124C217.488 96.0837 217.943 95.6171 218.377 95.8314L221.481 97.3626C222.064 97.6501 222.766 97.5291 223.219 97.0637L225.634 94.5854Z" stroke="black"/>
<path d="M42.0263 165.978C42.3644 165.631 42.9489 165.919 42.8794 166.399L42.3824 169.823C42.289 170.466 42.6203 171.097 43.2031 171.384L46.3069 172.916C46.7412 173.13 46.6478 173.775 46.1704 173.857L42.7596 174.442C42.1192 174.552 41.6225 175.062 41.529 175.705L41.0316 179.13C40.9621 179.61 40.3194 179.72 40.0939 179.292L38.4834 176.228C38.1809 175.653 37.5421 175.338 36.9017 175.447L33.4905 176.034C33.0131 176.116 32.7099 175.539 33.0479 175.192L35.4633 172.712C35.9166 172.247 36.0189 171.543 35.7164 170.968L34.1055 167.905C33.88 167.476 34.3348 167.009 34.7692 167.224L37.873 168.755C38.4558 169.042 39.1578 168.921 39.6114 168.456L42.0263 165.978Z" stroke="black"/>
</svg>
