<svg width="240" height="387" viewBox="0 0 240 387" fill="none" xmlns="http://www.w3.org/2000/svg">
<g filter="url(#filter0_d_88_113)">
<path d="M21.3113 7.91126C21.6286 7.54527 22.2289 7.79913 22.1874 8.28171L21.6725 14.2635C21.6168 14.9108 21.9846 15.5204 22.583 15.7734L28.1129 18.1118C28.5587 18.3004 28.5028 18.9493 28.0314 19.0591L22.183 20.418C21.5501 20.565 21.084 21.1028 21.0281 21.7501L20.5128 27.7327C20.471 28.2151 19.8365 28.3623 19.5865 27.9475L16.4871 22.8051C16.1517 22.2486 15.4956 21.9712 14.8627 22.1182L9.0143 23.477C8.5426 23.5866 8.20615 23.0288 8.52308 22.6628L12.4563 18.1255C12.8817 17.6345 12.9428 16.9253 12.6074 16.3689L9.50807 11.2264C9.25847 10.8117 9.68505 10.3196 10.131 10.508L15.6608 12.8464C16.2593 13.0994 16.9528 12.9386 17.3785 12.4477L21.3113 7.91126Z" stroke="black" shape-rendering="crispEdges"/>
</g>
<g filter="url(#filter1_d_88_113)">
<path d="M225.503 140.103C225.82 139.737 226.421 139.991 226.379 140.474L225.864 146.455C225.809 147.103 226.176 147.712 226.775 147.965L232.305 150.304C232.751 150.492 232.695 151.141 232.223 151.251L226.375 152.61C225.742 152.757 225.276 153.295 225.22 153.942L224.705 159.925C224.663 160.407 224.028 160.554 223.778 160.139L220.679 154.997C220.344 154.441 219.688 154.163 219.055 154.31L213.206 155.669C212.734 155.778 212.398 155.221 212.715 154.855L216.648 150.317C217.074 149.826 217.135 149.117 216.799 148.561L213.7 143.418C213.45 143.004 213.877 142.511 214.323 142.7L219.853 145.038C220.451 145.291 221.145 145.13 221.57 144.64L225.503 140.103Z" stroke="black" shape-rendering="crispEdges"/>
</g>
<g filter="url(#filter2_d_88_113)">
<path d="M27.5032 190.103C27.8205 189.737 28.4208 189.991 28.3792 190.474L27.8644 196.455C27.8087 197.103 28.1765 197.712 28.7749 197.965L34.3048 200.304C34.7506 200.492 34.6947 201.141 34.2233 201.251L28.3749 202.61C27.742 202.757 27.2759 203.295 27.22 203.942L26.7047 209.925C26.6629 210.407 26.0284 210.554 25.7784 210.139L22.679 204.997C22.3436 204.441 21.6875 204.163 21.0546 204.31L15.2062 205.669C14.7345 205.778 14.398 205.221 14.715 204.855L18.6482 200.317C19.0736 199.826 19.1347 199.117 18.7993 198.561L15.7 193.418C15.4504 193.004 15.8769 192.511 16.3229 192.7L21.8527 195.038C22.4512 195.291 23.1447 195.13 23.5704 194.64L27.5032 190.103Z" stroke="black" shape-rendering="crispEdges"/>
</g>
<g filter="url(#filter3_d_88_113)">
<path d="M119.42 239.75C119.478 239.269 120.118 239.144 120.353 239.568L123.269 244.816C123.585 245.384 124.23 245.684 124.868 245.56L130.761 244.409C131.236 244.316 131.552 244.885 131.222 245.24L127.132 249.635C126.689 250.11 126.603 250.817 126.918 251.385L129.834 256.634C130.069 257.058 129.625 257.534 129.186 257.33L123.742 254.797C123.153 254.523 122.454 254.66 122.011 255.136L117.92 259.531C117.59 259.885 117 259.61 117.058 259.13L117.784 253.169C117.863 252.524 117.517 251.902 116.928 251.628L111.484 249.095C111.045 248.891 111.124 248.244 111.599 248.151L117.492 247C118.129 246.876 118.615 246.355 118.693 245.71L119.42 239.75Z" stroke="black" shape-rendering="crispEdges"/>
</g>
<g filter="url(#filter4_d_88_113)">
<path d="M193.57 357.794C193.91 357.45 194.493 357.743 194.42 358.221L193.513 364.157C193.416 364.799 193.742 365.431 194.323 365.723L199.688 368.419C200.12 368.637 200.022 369.28 199.544 369.359L193.619 370.331C192.978 370.436 192.478 370.943 192.379 371.585L191.473 377.521C191.399 377.999 190.757 378.105 190.534 377.674L187.779 372.34C187.481 371.762 186.844 371.442 186.203 371.548L180.278 372.52C179.8 372.598 179.501 372.02 179.841 371.675L184.064 367.406C184.52 366.944 184.628 366.24 184.33 365.663L181.575 360.328C181.353 359.898 181.811 359.435 182.243 359.652L187.608 362.348C188.188 362.64 188.891 362.525 189.348 362.063L193.57 357.794Z" stroke="black" shape-rendering="crispEdges"/>
</g>
<defs>
<filter id="filter0_d_88_113" x="3.89709" y="7.2356" width="29.021" height="29.4551" filterUnits="userSpaceOnUse" color-interpolation-filters="sRGB">
<feFlood flood-opacity="0" result="BackgroundImageFix"/>
<feColorMatrix in="SourceAlpha" type="matrix" values="0 0 0 0 0 0 0 0 0 0 0 0 0 0 0 0 0 0 127 0" result="hardAlpha"/>
<feOffset dy="4"/>
<feGaussianBlur stdDeviation="2"/>
<feComposite in2="hardAlpha" operator="out"/>
<feColorMatrix type="matrix" values="0 0 0 0 0 0 0 0 0 0 0 0 0 0 0 0 0 0 0.25 0"/>
<feBlend mode="normal" in2="BackgroundImageFix" result="effect1_dropShadow_88_113"/>
<feBlend mode="normal" in="SourceGraphic" in2="effect1_dropShadow_88_113" result="shape"/>
</filter>
<filter id="filter1_d_88_113" x="208.089" y="139.427" width="29.021" height="29.4551" filterUnits="userSpaceOnUse" color-interpolation-filters="sRGB">
<feFlood flood-opacity="0" result="BackgroundImageFix"/>
<feColorMatrix in="SourceAlpha" type="matrix" values="0 0 0 0 0 0 0 0 0 0 0 0 0 0 0 0 0 0 127 0" result="hardAlpha"/>
<feOffset dy="4"/>
<feGaussianBlur stdDeviation="2"/>
<feComposite in2="hardAlpha" operator="out"/>
<feColorMatrix type="matrix" values="0 0 0 0 0 0 0 0 0 0 0 0 0 0 0 0 0 0 0.25 0"/>
<feBlend mode="normal" in2="BackgroundImageFix" result="effect1_dropShadow_88_113"/>
<feBlend mode="normal" in="SourceGraphic" in2="effect1_dropShadow_88_113" result="shape"/>
</filter>
<filter id="filter2_d_88_113" x="10.089" y="189.427" width="29.021" height="29.4551" filterUnits="userSpaceOnUse" color-interpolation-filters="sRGB">
<feFlood flood-opacity="0" result="BackgroundImageFix"/>
<feColorMatrix in="SourceAlpha" type="matrix" values="0 0 0 0 0 0 0 0 0 0 0 0 0 0 0 0 0 0 127 0" result="hardAlpha"/>
<feOffset dy="4"/>
<feGaussianBlur stdDeviation="2"/>
<feComposite in2="hardAlpha" operator="out"/>
<feColorMatrix type="matrix" values="0 0 0 0 0 0 0 0 0 0 0 0 0 0 0 0 0 0 0.25 0"/>
<feBlend mode="normal" in2="BackgroundImageFix" result="effect1_dropShadow_88_113"/>
<feBlend mode="normal" in="SourceGraphic" in2="effect1_dropShadow_88_113" result="shape"/>
</filter>
<filter id="filter3_d_88_113" x="106.695" y="238.809" width="29.1653" height="29.3837" filterUnits="userSpaceOnUse" color-interpolation-filters="sRGB">
<feFlood flood-opacity="0" result="BackgroundImageFix"/>
<feColorMatrix in="SourceAlpha" type="matrix" values="0 0 0 0 0 0 0 0 0 0 0 0 0 0 0 0 0 0 127 0" result="hardAlpha"/>
<feOffset dy="4"/>
<feGaussianBlur stdDeviation="2"/>
<feComposite in2="hardAlpha" operator="out"/>
<feColorMatrix type="matrix" values="0 0 0 0 0 0 0 0 0 0 0 0 0 0 0 0 0 0 0.25 0"/>
<feBlend mode="normal" in2="BackgroundImageFix" result="effect1_dropShadow_88_113"/>
<feBlend mode="normal" in="SourceGraphic" in2="effect1_dropShadow_88_113" result="shape"/>
</filter>
<filter id="filter4_d_88_113" x="175.194" y="357.142" width="29.2698" height="29.3035" filterUnits="userSpaceOnUse" color-interpolation-filters="sRGB">
<feFlood flood-opacity="0" result="BackgroundImageFix"/>
<feColorMatrix in="SourceAlpha" type="matrix" values="0 0 0 0 0 0 0 0 0 0 0 0 0 0 0 0 0 0 127 0" result="hardAlpha"/>
<feOffset dy="4"/>
<feGaussianBlur stdDeviation="2"/>
<feComposite in2="hardAlpha" operator="out"/>
<feColorMatrix type="matrix" values="0 0 0 0 0 0 0 0 0 0 0 0 0 0 0 0 0 0 0.25 0"/>
<feBlend mode="normal" in2="BackgroundImageFix" result="effect1_dropShadow_88_113"/>
<feBlend mode="normal" in="SourceGraphic" in2="effect1_dropShadow_88_113" result="shape"/>
</filter>
</defs>
</svg>
