<svg width="43" height="43" viewBox="0 0 43 43" fill="none" xmlns="http://www.w3.org/2000/svg">
<circle cx="21.5" cy="21.5" r="21.5" fill="white"/>
<mask id="path-2-inside-1_316_428" fill="white">
<path d="M8.73813 13.449C8.43936 13.1911 7.99671 13.1911 7.69794 13.449C7.33017 13.7664 7.33017 14.3365 7.69794 14.6539L21.3466 26.4359C21.7219 26.76 22.2781 26.76 22.6534 26.4359L36.3021 14.6539C36.6698 14.3365 36.6698 13.7664 36.3021 13.449C36.0033 13.1911 35.5606 13.1911 35.2619 13.449L22.6534 24.333C22.2781 24.6571 21.7219 24.6571 21.3466 24.333L8.73813 13.449Z"/>
</mask>
<path d="M8.73813 13.449C8.43936 13.1911 7.99671 13.1911 7.69794 13.449C7.33017 13.7664 7.33017 14.3365 7.69794 14.6539L21.3466 26.4359C21.7219 26.76 22.2781 26.76 22.6534 26.4359L36.3021 14.6539C36.6698 14.3365 36.6698 13.7664 36.3021 13.449C36.0033 13.1911 35.5606 13.1911 35.2619 13.449L22.6534 24.333C22.2781 24.6571 21.7219 24.6571 21.3466 24.333L8.73813 13.449Z" fill="#222222"/>
<path d="M35.2619 13.449L41.7963 21.0187L35.2619 13.449ZM36.3021 14.6539L42.8365 22.2237L36.3021 14.6539ZM7.69794 14.6539L1.16348 22.2237L7.69794 14.6539ZM7.69794 14.6539L1.16348 22.2237L14.8121 34.0056L21.3466 26.4359L27.881 18.8662L14.2324 7.08422L7.69794 14.6539ZM22.6534 26.4359L29.1879 34.0056L42.8365 22.2237L36.3021 14.6539L29.7676 7.08422L16.119 18.8662L22.6534 26.4359ZM35.2619 13.449L28.7274 5.87924L16.119 16.7633L22.6534 24.333L29.1879 31.9027L41.7963 21.0187L35.2619 13.449ZM21.3466 24.333L27.881 16.7633L15.2726 5.87924L8.73813 13.449L2.20366 21.0187L14.8121 31.9027L21.3466 24.333ZM22.6534 24.333L16.119 16.7633C19.4973 13.847 24.5026 13.8469 27.881 16.7633L21.3466 24.333L14.8121 31.9027C18.9412 35.4672 25.0588 35.4671 29.1879 31.9027L22.6534 24.333ZM36.3021 13.449L42.8365 5.87923C38.784 2.38096 32.7799 2.38097 28.7274 5.87924L35.2619 13.449L41.7963 21.0187C38.3414 24.0011 33.2226 24.0011 29.7676 21.0187L36.3021 13.449ZM36.3021 14.6539L42.8365 22.2237C47.825 17.9174 47.825 10.1855 42.8365 5.87923L36.3021 13.449L29.7676 21.0187C25.5147 17.3474 25.5146 10.7555 29.7676 7.08422L36.3021 14.6539ZM21.3466 26.4359L14.8121 34.0056C18.9412 37.5701 25.0588 37.57 29.1879 34.0056L22.6534 26.4359L16.119 18.8662C19.4973 15.9499 24.5026 15.9499 27.881 18.8662L21.3466 26.4359ZM7.69794 13.449L1.16348 5.87923C-3.82501 10.1855 -3.825 17.9174 1.16348 22.2237L7.69794 14.6539L14.2324 7.08422C18.4853 10.7555 18.4854 17.3474 14.2324 21.0187L7.69794 13.449ZM7.69794 13.449L14.2324 21.0187C10.7774 24.0012 5.6586 24.0011 2.20366 21.0187L8.73813 13.449L15.2726 5.87924C11.2201 2.38099 5.21601 2.38094 1.16348 5.87923L7.69794 13.449Z" fill="black" mask="url(#path-2-inside-1_316_428)"/>
</svg>
