<svg width="148" height="155" viewBox="0 0 148 155" fill="none" xmlns="http://www.w3.org/2000/svg">
<g clip-path="url(#clip0_129_176)">
<path d="M73.8154 77.2881L73.8266 77.3411" stroke="white" stroke-width="5" stroke-linecap="round" stroke-linejoin="round"/>
<path d="M101.232 31.7462C91.6236 24.9957 71.5293 39.9165 56.4147 65.0674C41.2738 90.2182 36.7908 116.08 46.4003 122.836C56.0075 129.581 76.1017 114.66 91.2164 89.5089C106.357 64.3581 110.841 38.5021 101.232 31.7462Z" stroke="white" stroke-width="5" stroke-linecap="round" stroke-linejoin="round"/>
<path d="M30.3197 46.7291C24.2634 56.7895 38.8315 78.6592 62.8516 95.5076C86.8724 112.384 111.255 117.907 117.316 107.846C123.368 97.7866 108.799 75.9168 84.7793 59.0684C60.7585 42.1921 36.3811 36.6677 30.3197 46.7291Z" stroke="white" stroke-width="5" stroke-linecap="round" stroke-linejoin="round"/>
</g>
<defs>
<clipPath id="clip0_129_176">
<rect width="123" height="132" fill="white" transform="translate(0 25.4275) rotate(-11.9306)"/>
</clipPath>
</defs>
</svg>
