<svg width="100" height="100" viewBox="0 0 100 100" fill="none" xmlns="http://www.w3.org/2000/svg">
<rect width="100" height="100" fill="white"/>
<path d="M77.7832 62.123C78.597 62.123 79.362 62.4811 80.0781 63.1973C80.8268 63.9134 81.2012 64.6621 81.2012 65.4434C81.2012 66.2572 81.0872 66.8919 80.8594 67.3477C79.2969 70.8633 77.0671 74.1185 74.1699 77.1133C71.3053 80.1081 67.8874 82.5169 63.916 84.3398C59.9447 86.1628 55.5013 87.0742 50.5859 87.0742C45.7357 87.0742 41.3411 86.179 37.4023 84.3887C33.4961 82.5983 30.1432 80.1243 27.3438 76.9668C24.5768 73.7767 22.4447 70.0983 20.9473 65.9316C19.4824 61.7324 18.75 57.224 18.75 52.4062C18.75 47.6536 19.4987 43.2266 20.9961 39.125C22.4935 34.9909 24.6419 31.3776 27.4414 28.2852C30.2409 25.1602 33.5775 22.7188 37.4512 20.9609C41.3574 19.2031 45.6868 18.3242 50.4395 18.3242C55.2572 18.3242 59.6354 19.1706 63.5742 20.8633C67.5456 22.556 70.9798 24.8184 73.877 27.6504C76.8066 30.4824 79.0853 33.6237 80.7129 37.0742C80.9733 37.5951 81.1035 38.1484 81.1035 38.7344C81.1035 39.6784 80.7617 40.5247 80.0781 41.2734C79.4271 41.9896 78.7435 42.3477 78.0273 42.3477C76.0742 42.3477 74.7721 41.6315 74.1211 40.1992C72.2005 36.1302 69.1895 32.696 65.0879 29.8965C60.9863 27.0645 56.1035 25.6484 50.4395 25.6484C45.4264 25.6484 41.097 26.8529 37.4512 29.2617C33.8053 31.6706 30.9896 34.9095 29.0039 38.9785C27.0508 43.015 26.0742 47.5397 26.0742 52.5527C26.0742 57.5658 27.0508 62.1393 29.0039 66.2734C30.957 70.375 33.7565 73.6465 37.4023 76.0879C41.0807 78.4967 45.4427 79.7012 50.4883 79.7012C54.2643 79.7012 57.6986 79.0013 60.791 77.6016C63.916 76.1693 66.6178 74.2812 68.8965 71.9375C71.2077 69.5938 72.9655 67.071 74.1699 64.3691C74.821 62.8717 76.0254 62.123 77.7832 62.123Z" fill="#7C225B"/>
</svg>
