<svg width="240" height="64" viewBox="0 0 240 64" fill="none" xmlns="http://www.w3.org/2000/svg">
<g filter="url(#filter0_d_1_116)">
<path d="M46.1523 33.0703C46.8555 33.0703 47.4902 33.3535 48.0566 33.9199C48.6426 34.4668 48.9355 35.082 48.9355 35.7656C48.9355 36.3125 48.8379 36.7812 48.6426 37.1719C47.666 39.3203 46.2793 41.3223 44.4824 43.1777C42.7051 45.0137 40.5859 46.4883 38.125 47.6016C35.6641 48.7148 32.9004 49.2715 29.834 49.2715C26.8066 49.2715 24.0723 48.6953 21.6309 47.543C19.1895 46.3906 17.0996 44.8184 15.3613 42.8262C13.6426 40.8145 12.3145 38.5098 11.377 35.9121C10.459 33.2949 10 30.5312 10 27.6211C10 24.75 10.4688 22.0156 11.4062 19.418C12.3438 16.8203 13.6816 14.5254 15.4199 12.5332C17.1582 10.5215 19.2383 8.93945 21.6602 7.78711C24.082 6.63477 26.7773 6.05859 29.7461 6.05859C32.7539 6.05859 35.4785 6.5957 37.9199 7.66992C40.3809 8.72461 42.5098 10.1406 44.3066 11.918C46.123 13.6758 47.5391 15.6094 48.5547 17.7188C48.7695 18.1289 48.877 18.5586 48.877 19.0078C48.877 19.7305 48.6133 20.3945 48.0859 21C47.5781 21.5859 46.9824 21.8789 46.2988 21.8789C45.6348 21.8789 45.0293 21.7422 44.4824 21.4688C43.9551 21.1758 43.5547 20.7461 43.2812 20.1797C42.1875 17.9141 40.4688 15.9707 38.125 14.3496C35.8008 12.7285 33.0078 11.918 29.7461 11.918C26.9141 11.918 24.4531 12.6406 22.3633 14.0859C20.293 15.5312 18.6914 17.4551 17.5586 19.8574C16.4258 22.2402 15.8594 24.8477 15.8594 27.6797C15.8594 30.5312 16.416 33.1484 17.5293 35.5312C18.6621 37.9141 20.2637 39.8184 22.334 41.2441C24.4238 42.6699 26.9043 43.3828 29.7754 43.3828C31.9238 43.3828 33.8867 42.9922 35.6641 42.2109C37.4609 41.4102 39.0137 40.3555 40.3223 39.0469C41.6309 37.7383 42.627 36.332 43.3105 34.8281C43.8379 33.6562 44.7852 33.0703 46.1523 33.0703ZM67.4219 16.6348C70.0195 16.6348 72.4023 17.2793 74.5703 18.5684C76.7383 19.8574 78.4766 21.5957 79.7852 23.7832C81.1133 25.9512 81.7773 28.3633 81.7773 31.0195C81.7773 31.5664 81.748 32.123 81.6895 32.6895C81.6113 33.4121 81.2793 34.0273 80.6934 34.5352C80.127 35.0234 79.4824 35.2676 78.7598 35.2676L58.2812 35.2969C58.6133 36.7031 59.2383 38.0215 60.1562 39.252C61.0742 40.4824 62.1875 41.4785 63.4961 42.2402C64.8242 43.002 66.2695 43.3828 67.832 43.3828C69.5117 43.3828 71.0156 42.9727 72.3438 42.1523C73.6719 41.332 74.707 40.3848 75.4492 39.3105C75.6836 38.9395 76.0352 38.627 76.5039 38.373C76.9922 38.1191 77.4512 37.9922 77.8809 37.9922C78.6816 37.9922 79.3652 38.2852 79.9316 38.8711C80.5176 39.457 80.8105 40.1504 80.8105 40.9512C80.8105 41.5762 80.6348 42.1328 80.2832 42.6211C79.0723 44.3984 77.4023 45.9414 75.2734 47.25C73.1641 48.5391 70.7129 49.1836 67.9199 49.1836C65.6738 49.1836 63.584 48.7441 61.6504 47.8652C59.7363 46.9863 58.0664 45.7852 56.6406 44.2617C55.2148 42.7383 54.1016 40.9902 53.3008 39.0176C52.5195 37.0254 52.1289 34.9258 52.1289 32.7188C52.1289 30.5898 52.5195 28.5684 53.3008 26.6543C54.082 24.7207 55.166 23.002 56.5527 21.498C57.959 19.9941 59.5898 18.8125 61.4453 17.9531C63.3008 17.0742 65.293 16.6348 67.4219 16.6348ZM75.7422 29.4082C75.3711 27.4941 74.4141 25.8633 72.8711 24.5156C71.3281 23.168 69.5117 22.4941 67.4219 22.4941C65.293 22.4941 63.4082 23.1875 61.7676 24.5742C60.1465 25.9609 59.0527 27.582 58.4863 29.4375L75.7422 29.4082ZM105.889 20.2383C105.889 21.8008 105.137 22.6699 103.633 22.8457C103.086 22.9043 102.393 22.7285 101.553 22.3184C100.713 21.8887 99.8633 21.6738 99.0039 21.6738C97.3047 21.6738 95.957 22.1133 94.9609 22.9922C93.9648 23.8516 93.252 25.0137 92.8223 26.4785C92.3926 27.9434 92.1777 29.584 92.1777 31.4004V46.5176C92.1777 47.377 91.9141 48.0605 91.3867 48.5684C90.8789 49.0762 90.166 49.3301 89.248 49.3301C88.3496 49.3301 87.6367 49.0762 87.1094 48.5684C86.582 48.0605 86.3184 47.3672 86.3184 46.4883V19.5059C86.3184 18.627 86.5332 17.9043 86.9629 17.3379C87.4121 16.7715 88.0176 16.4883 88.7793 16.4883C89.2285 16.4883 89.7461 16.6836 90.332 17.0742C90.9375 17.4453 91.3574 18.0898 91.5918 19.0078L91.8848 21.1172C92.1387 20.5703 92.627 19.9355 93.3496 19.2129C94.0723 18.4902 94.9316 17.8652 95.9277 17.3379C96.9238 16.791 97.959 16.5176 99.0332 16.5176C101.025 16.5176 102.666 16.752 103.955 17.2207C105.244 17.6699 105.889 18.6758 105.889 20.2383ZM122.207 16.6348C124.805 16.6348 127.188 17.2793 129.355 18.5684C131.523 19.8574 133.262 21.5957 134.57 23.7832C135.898 25.9512 136.562 28.3633 136.562 31.0195C136.562 31.5664 136.533 32.123 136.475 32.6895C136.396 33.4121 136.064 34.0273 135.479 34.5352C134.912 35.0234 134.268 35.2676 133.545 35.2676L113.066 35.2969C113.398 36.7031 114.023 38.0215 114.941 39.252C115.859 40.4824 116.973 41.4785 118.281 42.2402C119.609 43.002 121.055 43.3828 122.617 43.3828C124.297 43.3828 125.801 42.9727 127.129 42.1523C128.457 41.332 129.492 40.3848 130.234 39.3105C130.469 38.9395 130.82 38.627 131.289 38.373C131.777 38.1191 132.236 37.9922 132.666 37.9922C133.467 37.9922 134.15 38.2852 134.717 38.8711C135.303 39.457 135.596 40.1504 135.596 40.9512C135.596 41.5762 135.42 42.1328 135.068 42.6211C133.857 44.3984 132.188 45.9414 130.059 47.25C127.949 48.5391 125.498 49.1836 122.705 49.1836C120.459 49.1836 118.369 48.7441 116.436 47.8652C114.521 46.9863 112.852 45.7852 111.426 44.2617C110 42.7383 108.887 40.9902 108.086 39.0176C107.305 37.0254 106.914 34.9258 106.914 32.7188C106.914 30.5898 107.305 28.5684 108.086 26.6543C108.867 24.7207 109.951 23.002 111.338 21.498C112.744 19.9941 114.375 18.8125 116.23 17.9531C118.086 17.0742 120.078 16.6348 122.207 16.6348ZM130.527 29.4082C130.156 27.4941 129.199 25.8633 127.656 24.5156C126.113 23.168 124.297 22.4941 122.207 22.4941C120.078 22.4941 118.193 23.1875 116.553 24.5742C114.932 25.9609 113.838 27.582 113.271 29.4375L130.527 29.4082Z" fill="black"/>
<path d="M172.334 32.8359C172.334 35.0039 171.953 37.0645 171.191 39.0176C170.43 40.9707 169.355 42.709 167.969 44.2324C166.582 45.7363 164.951 46.9277 163.076 47.8066C161.221 48.6855 159.189 49.125 156.982 49.125C155.166 49.125 153.34 48.666 151.504 47.748C149.688 46.8301 148.223 45.5703 147.109 43.9688L146.758 46.3418C146.641 47.1426 146.377 47.8359 145.967 48.4219C145.576 48.9883 144.98 49.2715 144.18 49.2715C143.379 49.2715 142.686 48.9883 142.1 48.4219C141.533 47.8359 141.25 47.1426 141.25 46.3418V8.92969C141.25 8.12891 141.533 7.44531 142.1 6.87891C142.686 6.29297 143.379 6 144.18 6C144.98 6 145.664 6.29297 146.23 6.87891C146.816 7.44531 147.109 8.12891 147.109 8.92969V21.2637C148.379 19.7988 149.795 18.6367 151.357 17.7773C152.939 16.918 154.746 16.4883 156.777 16.4883C158.77 16.4883 160.693 16.8691 162.549 17.6309C164.404 18.3926 166.045 19.4668 167.471 20.8535C169.092 22.4551 170.303 24.3008 171.104 26.3906C171.924 28.4805 172.334 30.6289 172.334 32.8359ZM157.041 43.2656C158.857 43.2656 160.479 42.7773 161.904 41.8008C163.33 40.8242 164.453 39.5449 165.273 37.9629C166.094 36.3613 166.504 34.6523 166.504 32.8359C166.504 31.0195 166.084 29.3105 165.244 27.709C164.424 26.0879 163.291 24.7793 161.846 23.7832C160.4 22.7676 158.75 22.2598 156.895 22.2598C155.039 22.2598 153.389 22.7383 151.943 23.6953C150.498 24.6523 149.365 25.9219 148.545 27.5039C147.725 29.0859 147.314 30.8145 147.314 32.6895C147.314 34.0566 147.549 35.3945 148.018 36.7031C148.506 38.0117 149.189 39.1543 150.068 40.1309C150.947 41.0879 152.012 41.8496 153.262 42.416C154.512 42.9824 155.771 43.2656 157.041 43.2656ZM196.182 20.2383C196.182 21.8008 195.43 22.6699 193.926 22.8457C193.379 22.9043 192.686 22.7285 191.846 22.3184C191.006 21.8887 190.156 21.6738 189.297 21.6738C187.598 21.6738 186.25 22.1133 185.254 22.9922C184.258 23.8516 183.545 25.0137 183.115 26.4785C182.686 27.9434 182.471 29.584 182.471 31.4004V46.5176C182.471 47.377 182.207 48.0605 181.68 48.5684C181.172 49.0762 180.459 49.3301 179.541 49.3301C178.643 49.3301 177.93 49.0762 177.402 48.5684C176.875 48.0605 176.611 47.3672 176.611 46.4883V19.5059C176.611 18.627 176.826 17.9043 177.256 17.3379C177.705 16.7715 178.311 16.4883 179.072 16.4883C179.521 16.4883 180.039 16.6836 180.625 17.0742C181.23 17.4453 181.65 18.0898 181.885 19.0078L182.178 21.1172C182.432 20.5703 182.92 19.9355 183.643 19.2129C184.365 18.4902 185.225 17.8652 186.221 17.3379C187.217 16.791 188.252 16.5176 189.326 16.5176C191.318 16.5176 192.959 16.752 194.248 17.2207C195.537 17.6699 196.182 18.6758 196.182 20.2383ZM213.701 16.4004C215.146 16.4004 216.553 16.6934 217.92 17.2793C219.307 17.8457 220.537 18.5684 221.611 19.4473C222.705 20.3066 223.516 21.1953 224.043 22.1133L224.365 19.3008C224.365 18.5 224.6 17.8164 225.068 17.25C225.537 16.6641 226.172 16.3711 226.973 16.3711C227.773 16.3711 228.457 16.6641 229.023 17.25C229.609 17.8164 229.902 18.5 229.902 19.3008V19.3594L229.844 46.4883C229.844 47.2891 229.551 47.9824 228.965 48.5684C228.398 49.1348 227.715 49.418 226.914 49.418C226.113 49.418 225.479 49.1348 225.01 48.5684C224.541 47.9824 224.307 47.2891 224.307 46.4883L223.984 44.1445C222.969 45.8828 221.484 47.1816 219.531 48.041C217.578 48.8809 215.615 49.3008 213.643 49.3008C211.436 49.3008 209.365 48.8711 207.432 48.0117C205.498 47.1328 203.799 45.9316 202.334 44.4082C200.869 42.8848 199.717 41.1367 198.877 39.1641C198.057 37.1914 197.646 35.1113 197.646 32.9238C197.646 30.7559 198.047 28.6855 198.848 26.7129C199.668 24.7207 200.801 22.9531 202.246 21.4102C203.711 19.8477 205.41 18.627 207.344 17.748C209.297 16.8496 211.416 16.4004 213.701 16.4004ZM223.809 32.8652C223.809 30.9512 223.359 29.1934 222.461 27.5918C221.582 25.9902 220.381 24.7012 218.857 23.7246C217.334 22.748 215.596 22.2598 213.643 22.2598C211.729 22.2598 210 22.748 208.457 23.7246C206.914 24.7012 205.693 26 204.795 27.6211C203.896 29.2227 203.447 30.9609 203.447 32.8359C203.447 34.7305 203.906 36.4883 204.824 38.1094C205.742 39.7109 206.973 41 208.516 41.9766C210.078 42.9531 211.797 43.4414 213.672 43.4414C215.547 43.4414 217.246 42.9531 218.77 41.9766C220.312 41 221.533 39.7109 222.432 38.1094C223.35 36.4883 223.809 34.7402 223.809 32.8652Z" fill="#7C225B"/>
</g>
<defs>
<filter id="filter0_d_1_116" x="0" y="0" width="239.902" height="63.418" filterUnits="userSpaceOnUse" color-interpolation-filters="sRGB">
<feFlood flood-opacity="0" result="BackgroundImageFix"/>
<feColorMatrix in="SourceAlpha" type="matrix" values="0 0 0 0 0 0 0 0 0 0 0 0 0 0 0 0 0 0 127 0" result="hardAlpha"/>
<feOffset dy="4"/>
<feGaussianBlur stdDeviation="5"/>
<feComposite in2="hardAlpha" operator="out"/>
<feColorMatrix type="matrix" values="0 0 0 0 0 0 0 0 0 0 0 0 0 0 0 0 0 0 0.25 0"/>
<feBlend mode="normal" in2="BackgroundImageFix" result="effect1_dropShadow_1_116"/>
<feBlend mode="normal" in="SourceGraphic" in2="effect1_dropShadow_1_116" result="shape"/>
</filter>
</defs>
</svg>
