<svg width="139" height="129" viewBox="0 0 139 129" fill="none" xmlns="http://www.w3.org/2000/svg">
<rect x="20.2017" y="14.5787" width="100" height="100" rx="20" fill="white"/>
<path d="M97.9849 76.7018C98.7987 76.7018 99.5636 77.0599 100.28 77.776C101.028 78.4921 101.403 79.2408 101.403 80.0221C101.403 80.8359 101.289 81.4707 101.061 81.9264C99.4985 85.442 97.2687 88.6972 94.3716 91.692C91.507 94.6868 88.089 97.0957 84.1177 98.9186C80.1463 100.741 75.703 101.653 70.7876 101.653C65.9373 101.653 61.5428 100.758 57.604 98.9674C53.6978 97.177 50.3449 94.7031 47.5454 91.5455C44.7785 88.3554 42.6463 84.677 41.1489 80.5104C39.6841 76.3112 38.9517 71.8027 38.9517 66.985C38.9517 62.2324 39.7004 57.8053 41.1978 53.7037C42.6951 49.5696 44.8436 45.9563 47.6431 42.8639C50.4425 39.7389 53.7791 37.2975 57.6528 35.5397C61.5591 33.7819 65.8885 32.903 70.6411 32.903C75.4588 32.903 79.8371 33.7493 83.7759 35.442C87.7472 37.1347 91.1815 39.3971 94.0786 42.2291C97.0083 45.0612 99.2869 48.2024 100.915 51.653C101.175 52.1738 101.305 52.7272 101.305 53.3131C101.305 54.2571 100.963 55.1035 100.28 55.8522C99.6287 56.5683 98.9451 56.9264 98.229 56.9264C96.2759 56.9264 94.9738 56.2102 94.3228 54.778C92.4022 50.7089 89.3911 47.2747 85.2896 44.4752C81.188 41.6432 76.3052 40.2272 70.6411 40.2272C65.6281 40.2272 61.2987 41.4316 57.6528 43.8405C54.007 46.2493 51.1912 49.4882 49.2056 53.5573C47.2524 57.5937 46.2759 62.1184 46.2759 67.1315C46.2759 72.1445 47.2524 76.7181 49.2056 80.8522C51.1587 84.9537 53.9582 88.2252 57.604 90.6666C61.2824 93.0755 65.6444 94.2799 70.6899 94.2799C74.466 94.2799 77.9002 93.58 80.9927 92.1803C84.1177 90.748 86.8195 88.86 89.0981 86.5162C91.4093 84.1725 93.1672 81.6497 94.3716 78.9479C95.0226 77.4505 96.2271 76.7018 97.9849 76.7018Z" fill="#7C225B"/>
<rect x="56.6827" y="5.46472" width="12.4492" height="61.9766" transform="rotate(49.0459 56.6827 5.46472)" fill="#E4D90E"/>
<rect x="130.008" y="78.5787" width="12.4492" height="61.9766" transform="rotate(49.0459 130.008 78.5787)" fill="#E4D90E"/>
<path d="M40.2017 77.0787L40.7017 79.0788L41.2017 80.5787L42.7017 84.0788L43.7017 86.0788L45.7426 89.1614L8.36167 121.604L0.201756 112.202L40.2017 77.0787Z" fill="#E4D90E"/>
<path d="M122.319 0L131.521 8.38536L97.2017 45.5787L96.2017 44.5787L95.2017 43.0787L88.2017 37.5787L122.319 0Z" fill="#E4D90E"/>
</svg>
