<svg width="55" height="11" viewBox="0 0 55 11" fill="none" xmlns="http://www.w3.org/2000/svg">
<path d="M5.02447 1.46352C5.17415 1.00287 5.82585 1.00287 5.97553 1.46353L6.62257 3.45492C6.68951 3.66093 6.88148 3.80041 7.0981 3.80041H9.19197C9.67633 3.80041 9.87772 4.42021 9.48586 4.70492L7.79188 5.93566C7.61664 6.06298 7.54331 6.28867 7.61025 6.49468L8.25729 8.48607C8.40697 8.94672 7.87973 9.32979 7.48787 9.04508L5.79389 7.81434C5.61865 7.68702 5.38135 7.68702 5.20611 7.81434L3.51213 9.04509C3.12027 9.32979 2.59303 8.94672 2.74271 8.48607L3.38975 6.49468C3.45669 6.28867 3.38336 6.06298 3.20812 5.93566L1.51414 4.70491C1.12228 4.42021 1.32367 3.80041 1.80803 3.80041H3.9019C4.11852 3.80041 4.31049 3.66093 4.37743 3.45492L5.02447 1.46352Z" fill="#E7D400"/>
<path d="M16.0245 1.46352C16.1741 1.00287 16.8259 1.00287 16.9755 1.46353L17.6226 3.45492C17.6895 3.66093 17.8815 3.80041 18.0981 3.80041H20.192C20.6763 3.80041 20.8777 4.42021 20.4859 4.70492L18.7919 5.93566C18.6166 6.06298 18.5433 6.28867 18.6102 6.49468L19.2573 8.48607C19.407 8.94672 18.8797 9.32979 18.4879 9.04508L16.7939 7.81434C16.6186 7.68702 16.3814 7.68702 16.2061 7.81434L14.5121 9.04509C14.1203 9.32979 13.593 8.94672 13.7427 8.48607L14.3898 6.49468C14.4567 6.28867 14.3834 6.06298 14.2081 5.93566L12.5141 4.70491C12.1223 4.42021 12.3237 3.80041 12.808 3.80041H14.9019C15.1185 3.80041 15.3105 3.66093 15.3774 3.45492L16.0245 1.46352Z" fill="#E7D400"/>
<path d="M27.0245 1.46352C27.1741 1.00287 27.8259 1.00287 27.9755 1.46353L28.6226 3.45492C28.6895 3.66093 28.8815 3.80041 29.0981 3.80041H31.192C31.6763 3.80041 31.8777 4.42021 31.4859 4.70492L29.7919 5.93566C29.6166 6.06298 29.5433 6.28867 29.6102 6.49468L30.2573 8.48607C30.407 8.94672 29.8797 9.32979 29.4879 9.04508L27.7939 7.81434C27.6186 7.68702 27.3814 7.68702 27.2061 7.81434L25.5121 9.04509C25.1203 9.32979 24.593 8.94672 24.7427 8.48607L25.3898 6.49468C25.4567 6.28867 25.3834 6.06298 25.2081 5.93566L23.5141 4.70491C23.1223 4.42021 23.3237 3.80041 23.808 3.80041H25.9019C26.1185 3.80041 26.3105 3.66093 26.3774 3.45492L27.0245 1.46352Z" fill="#E7D400"/>
<path d="M38.0245 1.46352C38.1741 1.00287 38.8259 1.00287 38.9755 1.46353L39.6226 3.45492C39.6895 3.66093 39.8815 3.80041 40.0981 3.80041H42.192C42.6763 3.80041 42.8777 4.42021 42.4859 4.70492L40.7919 5.93566C40.6166 6.06298 40.5433 6.28867 40.6102 6.49468L41.2573 8.48607C41.407 8.94672 40.8797 9.32979 40.4879 9.04508L38.7939 7.81434C38.6186 7.68702 38.3814 7.68702 38.2061 7.81434L36.5121 9.04509C36.1203 9.32979 35.593 8.94672 35.7427 8.48607L36.3898 6.49468C36.4567 6.28867 36.3834 6.06298 36.2081 5.93566L34.5141 4.70491C34.1223 4.42021 34.3237 3.80041 34.808 3.80041H36.9019C37.1185 3.80041 37.3105 3.66093 37.3774 3.45492L38.0245 1.46352Z" fill="#E7D400"/>
<path d="M49.0245 1.46352C49.1741 1.00287 49.8259 1.00287 49.9755 1.46353L50.6226 3.45492C50.6895 3.66093 50.8815 3.80041 51.0981 3.80041H53.192C53.6763 3.80041 53.8777 4.42021 53.4859 4.70492L51.7919 5.93566C51.6166 6.06298 51.5433 6.28867 51.6102 6.49468L52.2573 8.48607C52.407 8.94672 51.8797 9.32979 51.4879 9.04508L49.7939 7.81434C49.6186 7.68702 49.3814 7.68702 49.2061 7.81434L47.5121 9.04509C47.1203 9.32979 46.593 8.94672 46.7427 8.48607L47.3898 6.49468C47.4567 6.28867 47.3834 6.06298 47.2081 5.93566L45.5141 4.70491C45.1223 4.42021 45.3237 3.80041 45.808 3.80041H47.9019C48.1185 3.80041 48.3105 3.66093 48.3774 3.45492L49.0245 1.46352Z" fill="#E7D400"/>
</svg>
