<svg width="143" height="139" viewBox="0 0 143 139" fill="none" xmlns="http://www.w3.org/2000/svg">
<path d="M101.431 36.1117C104.784 35.6743 108.169 36.5521 110.841 38.552C113.513 40.5519 115.254 43.5101 115.68 46.7759L119.964 79.6119C120.39 82.8777 119.466 86.1834 117.396 88.802C115.327 91.4205 112.28 93.1373 108.927 93.5747L41.4985 102.371C38.1454 102.809 34.7604 101.931 32.0881 99.9308C29.4159 97.9309 27.6753 94.9727 27.2492 91.7069L22.9656 58.8709C22.5396 55.6051 23.463 52.2994 25.5328 49.6808C27.6025 47.0623 30.649 45.3455 34.0021 44.9081L101.431 36.1117ZM53.0011 59.127L52.5118 59.22C51.502 59.4714 50.6194 60.0747 50.0315 60.9154C49.4436 61.7561 49.1913 62.7759 49.3223 63.7813L49.8577 67.8858L45.6434 68.4355C44.5257 68.5813 43.5102 69.1536 42.8203 70.0265C42.1304 70.8993 41.8226 72.0012 41.9646 73.0898L42.0567 73.5662C42.3078 74.5489 42.9206 75.4051 43.7792 75.9725C44.6377 76.5399 45.6821 76.7791 46.7143 76.6445L50.9286 76.0948L51.4641 80.1993C51.6061 81.2879 52.1863 82.2739 53.077 82.9406C53.9678 83.6072 55.0961 83.8998 56.2138 83.754L56.7031 83.6609C57.7129 83.4096 58.5955 82.8063 59.1834 81.9656C59.7713 81.1248 60.0237 80.1051 59.8927 79.0997L59.3572 74.9952L63.5715 74.4454C64.6892 74.2996 65.7047 73.7274 66.3946 72.8545C67.0845 71.9817 67.3923 70.8798 67.2503 69.7912L67.1582 69.3148C66.9072 68.3321 66.2943 67.4759 65.4358 66.9085C64.5773 66.341 63.5328 66.1019 62.5006 66.2364L58.2863 66.7862L57.7508 62.6817C57.6088 61.5931 57.0286 60.6071 56.1379 59.9404C55.2471 59.2738 54.1188 58.9812 53.0011 59.127ZM96.7504 65.9428C95.6327 66.0886 94.6172 66.6608 93.9272 67.5337C93.2373 68.4065 92.9295 69.5085 93.0715 70.597L93.0769 70.6381C93.2189 71.7267 93.7991 72.7127 94.6898 73.3794C95.5806 74.046 96.7089 74.3386 97.8266 74.1928C98.9443 74.047 99.9598 73.4747 100.65 72.6019C101.34 71.729 101.647 70.6271 101.505 69.5385L101.5 69.4975C101.358 68.4089 100.778 67.4228 99.8872 66.7562C98.9964 66.0895 97.8681 65.7969 96.7504 65.9428ZM83.0366 59.3831C81.9189 59.5289 80.9034 60.1012 80.2135 60.974C79.5236 61.8468 79.2157 62.9488 79.3578 64.0373L79.3631 64.0784C79.5051 65.167 80.0853 66.153 80.9761 66.8197C81.8668 67.4863 82.9952 67.7789 84.1129 67.6331C85.2306 67.4873 86.2461 66.915 86.936 66.0422C87.6259 65.1693 87.9337 64.0674 87.7917 62.9788L87.7863 62.9378C87.6443 61.8492 87.0641 60.8631 86.1734 60.1965C85.2826 59.5299 84.1543 59.2373 83.0366 59.3831Z" fill="white"/>
</svg>
