<svg width="79" height="73" viewBox="0 0 79 73" fill="none" xmlns="http://www.w3.org/2000/svg">
<g filter="url(#filter0_d_326_439)">
<path d="M21.3741 7.72732C35.384 -0.621265 54.1698 1.76649 65.4718 13.3478C76.9676 25.1356 77.1651 42.7935 65.8819 54.4658C55.2535 65.4586 37.5746 67.8684 23.6549 60.5381L22.8958 60.1244L7.8159 62.0488L7.67873 62.0577L7.5582 62.0716L7.49727 62.0664L7.42133 62.0772L7.29269 62.0661L7.1798 62.0703L7.10901 62.0608L7.03086 62.0576L6.92002 62.0377L6.80154 62.0276L6.72824 62.0075L6.65435 61.9943L6.53793 61.9601L6.4243 61.9331L6.37131 61.9148L6.29153 61.8907L6.13035 61.8217L6.05057 61.7976L6.0148 61.7773L5.94238 61.7469L5.79591 61.6653L5.69787 61.6155L5.6624 61.5917L5.61676 61.5671L5.5171 61.4964L5.37181 61.4011L5.32087 61.3588L5.20324 61.2589L5.07576 61.1548L5.07016 61.1405L5.02879 61.1059L4.89496 60.9563L4.8162 60.8805L4.79794 60.8548L4.62655 60.626L4.58665 60.5743L4.55352 60.5231L4.43792 60.3199L4.3961 60.2507L4.38211 60.2149L4.26134 59.9526L4.24117 59.9094L4.22997 59.8808L4.20979 59.8377L4.17355 59.7033L4.11816 59.5536L4.10931 59.4976L4.09871 59.4621L4.05905 59.2481L4.04063 59.1844L4.03826 59.1324L4.02691 59.0658L4.01966 58.9512L4.0049 58.805L4.00722 58.6981L4 58.663L4.00469 58.6081L4.00699 58.4219L4.02093 58.2988L4.03106 58.2202L4.05338 58.0391L4.07425 57.9546L4.07982 57.8894L4.11717 57.7718L4.14407 57.6567L4.16686 57.5896L4.18627 57.5222L4.2648 57.3217L4.27877 57.278L9.18362 45.7851L9.12 45.6519C2.73772 32.1677 7.48838 16.5389 20.5497 8.23687L21.3741 7.72732Z" fill="#00C8FF"/>
</g>
<defs>
<filter id="filter0_d_326_439" x="0" y="2.76373" width="78.2205" height="69.9757" filterUnits="userSpaceOnUse" color-interpolation-filters="sRGB">
<feFlood flood-opacity="0" result="BackgroundImageFix"/>
<feColorMatrix in="SourceAlpha" type="matrix" values="0 0 0 0 0 0 0 0 0 0 0 0 0 0 0 0 0 0 127 0" result="hardAlpha"/>
<feOffset dy="4"/>
<feGaussianBlur stdDeviation="2"/>
<feComposite in2="hardAlpha" operator="out"/>
<feColorMatrix type="matrix" values="0 0 0 0 0 0 0 0 0 0 0 0 0 0 0 0 0 0 0.25 0"/>
<feBlend mode="normal" in2="BackgroundImageFix" result="effect1_dropShadow_326_439"/>
<feBlend mode="normal" in="SourceGraphic" in2="effect1_dropShadow_326_439" result="shape"/>
</filter>
</defs>
</svg>
