<svg width="21" height="21" viewBox="0 0 21 21" fill="none" xmlns="http://www.w3.org/2000/svg">
<path d="M20.5 13.4719C20.5 17.3534 17.3794 20.5 13.53 20.5C9.68061 20.5 0.5 11.4095 0.5 7.52805C0.5 3.64657 3.62057 0.5 7.46998 0.5" stroke="black"/>
<path d="M7.30745 9.80834C9.07206 7.88571 9.16493 7.74503 11.1617 5.63483C11.1617 3.10972 9.73832 0.5 7.23779 0.5" stroke="black"/>
<path d="M11.3243 13.7939C13.1353 11.801 13.3211 11.7775 15.4107 9.76111C17.9113 9.76111 20.4956 11.1985 20.4956 13.7236" stroke="black"/>
<rect x="0.489593" y="-0.0237888" width="0.696604" height="6.1173" transform="matrix(0.668344 -0.743852 0.737312 0.675553 6.79875 10.0694)" fill="#008CD2" stroke="black" stroke-width="0.696604"/>
</svg>
