<svg width="27" height="27" viewBox="0 0 27 27" fill="none" xmlns="http://www.w3.org/2000/svg">
<path d="M26.5 17.3635C26.5 22.4095 22.4433 26.5 17.439 26.5C12.4348 26.5 0.5 14.6824 0.5 9.63647C0.5 4.59054 4.55674 0.5 9.56097 0.5" stroke="white"/>
<path d="M9.34968 12.6008C11.6437 10.1014 11.7644 9.91854 14.3602 7.17528C14.3602 3.89264 12.5098 0.5 9.25912 0.5" stroke="white"/>
<path d="M14.5716 17.7822C16.9259 15.1914 17.1674 15.1609 19.8839 12.5395C23.1346 12.5395 26.4943 14.4081 26.4943 17.6908" stroke="white"/>
<rect x="0.470286" y="-0.0228507" width="0.669133" height="7.67928" transform="matrix(0.668344 -0.743852 0.737312 0.675553 8.97452 12.8151)" fill="#008CD2" stroke="white" stroke-width="0.669133"/>
</svg>
