<svg width="156" height="149" viewBox="0 0 156 149" fill="none" xmlns="http://www.w3.org/2000/svg">
<g clip-path="url(#clip0_112_203)">
<path d="M57.275 22.5173C66.2567 24.7896 74.1596 30.0187 79.4917 37.2173C84.8239 44.4159 87.2161 53.0859 86.2169 61.5901C90.4779 59.1492 95.2597 57.5597 100.273 56.9182C105.285 56.2766 110.425 56.5963 115.379 57.8578L131.132 61.8458C132.525 62.1984 133.731 63.0472 134.486 64.2055C135.24 65.3638 135.481 66.7367 135.156 68.0223L133.929 72.8694C131.651 81.868 125.593 89.5178 117.089 94.1357C108.585 98.7537 98.3306 99.9615 88.582 97.4936L78.08 94.8349L73.1717 114.223C72.8462 115.509 71.9809 116.602 70.766 117.261C69.5511 117.921 68.0862 118.094 66.6936 117.741C65.3009 117.388 64.0946 116.54 63.3399 115.381C62.5853 114.223 62.3442 112.85 62.6696 111.565L71.2592 77.6349L60.7572 74.9762C51.0086 72.5083 42.5643 66.5667 37.2819 58.4586C31.9994 50.3504 30.3116 40.7399 32.5897 31.7412L35.0439 22.047C35.3694 20.7615 36.2347 19.6687 37.4496 19.009C38.6645 18.3493 40.1294 18.1767 41.522 18.5293L57.275 22.5173Z" fill="white"/>
</g>
<defs>
<clipPath id="clip0_112_203">
<rect width="130" height="120" fill="white" transform="translate(29.4502) rotate(14.2065)"/>
</clipPath>
</defs>
</svg>
