<svg width="128" height="128" viewBox="0 0 128 128" fill="none" xmlns="http://www.w3.org/2000/svg">
<g filter="url(#filter0_d_1_182)">
<mask id="path-1-inside-1_1_182" fill="white">
<path d="M29.7867 19.8006C33.3912 12.3416 42.36 9.21694 49.819 12.8214L111.126 42.4474C118.585 46.0519 121.709 55.0206 118.105 62.4796L94.8447 110.613C91.2402 118.072 82.2715 121.197 74.8125 117.593L13.5057 87.9667C6.0467 84.3622 2.92201 75.3935 6.5265 67.9345L29.7867 19.8006Z"/>
</mask>
<path d="M31.8113 4.11942C36.6173 -5.82592 48.5756 -9.99219 58.521 -5.1862L119.828 24.4397C129.773 29.2457 133.939 41.204 129.133 51.1494L111.428 64.806C111.428 64.806 107.396 62.858 102.424 60.455L41.1169 30.8291C36.1443 28.4261 32.1131 26.4781 32.1131 26.4781L31.8113 4.11942ZM99.3466 112.789C94.5407 122.734 82.5823 126.901 72.637 122.095L11.3302 92.4686C1.38487 87.6626 -2.7814 75.7043 2.02459 65.759L11.0284 70.11C8.62541 75.0827 10.7085 81.0618 15.6812 83.4648L76.988 113.091C81.9607 115.494 87.9398 113.411 90.3428 108.438L99.3466 112.789ZM11.3302 92.4686C1.38487 87.6626 -2.7814 75.7043 2.02459 65.759L31.8113 4.11942C36.6173 -5.82592 48.5756 -9.99219 58.521 -5.1862L41.1169 30.8291C36.1443 28.4261 32.1131 26.4781 32.1131 26.4781L11.0284 70.11C8.62541 75.0827 10.7085 81.0618 15.6812 83.4648L11.3302 92.4686ZM119.828 24.4397C129.773 29.2457 133.939 41.204 129.133 51.1494L99.3466 112.789C94.5407 122.734 82.5823 126.901 72.637 122.095L76.988 113.091C81.9607 115.494 87.9398 113.411 90.3428 108.438L111.428 64.806C111.428 64.806 107.396 62.858 102.424 60.455L119.828 24.4397Z" fill="#4AB6D1" mask="url(#path-1-inside-1_1_182)"/>
<ellipse cx="54.5346" cy="15.8281" rx="4.68063" ry="7.6468" transform="rotate(25.7917 54.5346 15.8281)" fill="#4AB6D1"/>
<ellipse cx="107.672" cy="41.5064" rx="5.08764" ry="7.6468" transform="rotate(25.7917 107.672 41.5064)" fill="#4AB6D1"/>
<rect x="42.3613" y="34.9387" width="10.9893" height="11.7979" transform="rotate(25.7917 42.3613 34.9387)" fill="#4AB6D1"/>
<rect x="65.4486" y="46.0955" width="10.9893" height="11.7979" transform="rotate(25.7917 65.4486 46.0955)" fill="#4AB6D1"/>
<rect x="88.536" y="57.2522" width="10.9893" height="11.7979" transform="rotate(25.7917 88.536 57.2522)" fill="#4AB6D1"/>
<rect x="30.5737" y="59.3315" width="10.9893" height="11.7979" transform="rotate(25.7917 30.5737 59.3315)" fill="#4AB6D1"/>
<rect x="53.6611" y="70.4883" width="10.9893" height="11.7979" transform="rotate(25.7917 53.6611 70.4883)" fill="#4AB6D1"/>
<rect x="76.7484" y="81.645" width="10.9893" height="11.7979" transform="rotate(25.7917 76.7484 81.645)" fill="#4AB6D1"/>
</g>
<defs>
<filter id="filter0_d_1_182" x="1.02879" y="8.64624" width="122.574" height="118.444" filterUnits="userSpaceOnUse" color-interpolation-filters="sRGB">
<feFlood flood-opacity="0" result="BackgroundImageFix"/>
<feColorMatrix in="SourceAlpha" type="matrix" values="0 0 0 0 0 0 0 0 0 0 0 0 0 0 0 0 0 0 127 0" result="hardAlpha"/>
<feOffset dy="4"/>
<feGaussianBlur stdDeviation="2"/>
<feComposite in2="hardAlpha" operator="out"/>
<feColorMatrix type="matrix" values="0 0 0 0 0 0 0 0 0 0 0 0 0 0 0 0 0 0 0.25 0"/>
<feBlend mode="normal" in2="BackgroundImageFix" result="effect1_dropShadow_1_182"/>
<feBlend mode="normal" in="SourceGraphic" in2="effect1_dropShadow_1_182" result="shape"/>
</filter>
</defs>
</svg>
