<svg width="116" height="114" viewBox="0 0 116 114" fill="none" xmlns="http://www.w3.org/2000/svg">
<g filter="url(#filter0_d_1_192)">
<mask id="path-1-inside-1_1_192" fill="white">
<path d="M4.52929 41.7224C2.82307 33.6157 8.01166 25.6608 16.1183 23.9546L82.7483 9.93093C90.855 8.22471 98.8099 13.4133 100.516 21.52L111.527 73.8332C113.233 81.9399 108.044 89.8948 99.9375 91.601L33.3075 105.625C25.2008 107.331 17.2459 102.142 15.5397 94.0356L4.52929 41.7224Z"/>
</mask>
<path d="M-3.45289 28.0738C-5.72785 17.2649 1.19026 6.65836 11.9991 4.3834L78.6291 -9.64028C89.438 -11.9152 100.045 -4.99712 102.32 5.81176L96.6531 27.4426C96.6531 27.4426 92.2719 28.3647 86.8675 29.5021L20.2375 43.5258C14.8331 44.6633 10.4519 45.5854 10.4519 45.5854L-3.45289 28.0738ZM116.419 72.8034C118.694 83.6123 111.776 94.2188 100.967 96.4938L34.3373 110.517C23.5284 112.792 12.9219 105.874 10.6469 95.0654L20.4325 93.0059C21.57 98.4103 26.8733 101.869 32.2777 100.732L98.9077 86.7082C104.312 85.5707 107.771 80.2674 106.634 74.863L116.419 72.8034ZM34.3373 110.517C23.5284 112.792 12.9219 105.874 10.6469 95.0654L-3.45289 28.0738C-5.72785 17.2649 1.19026 6.65836 11.9991 4.3834L20.2375 43.5258C14.8331 44.6633 10.4519 45.5854 10.4519 45.5854L20.4325 93.0059C21.57 98.4103 26.8733 101.869 32.2777 100.732L34.3373 110.517ZM78.6291 -9.64028C89.438 -11.9152 100.045 -4.99712 102.32 5.81176L116.419 72.8034C118.694 83.6123 111.776 94.2188 100.967 96.4938L98.9077 86.7082C104.312 85.5707 107.771 80.2674 106.634 74.863L96.6531 27.4426C96.6531 27.4426 92.2719 28.3647 86.8675 29.5021L78.6291 -9.64028Z" fill="#4AB6D1" mask="url(#path-1-inside-1_1_192)"/>
<ellipse cx="21.6884" cy="23.452" rx="4.68063" ry="7.6468" transform="rotate(-11.8856 21.6884 23.452)" fill="#4AB6D1"/>
<ellipse cx="79.4398" cy="11.2971" rx="5.08764" ry="7.6468" transform="rotate(-11.8856 79.4398 11.2971)" fill="#4AB6D1"/>
<rect x="23.7343" y="46.0179" width="10.9893" height="11.7979" transform="rotate(-11.8856 23.7343 46.0179)" fill="#4AB6D1"/>
<rect x="48.8263" y="40.7366" width="10.9893" height="11.7979" transform="rotate(-11.8856 48.8263 40.7366)" fill="#4AB6D1"/>
<rect x="73.9182" y="35.4556" width="10.9893" height="11.7979" transform="rotate(-11.8856 73.9182 35.4556)" fill="#4AB6D1"/>
<rect x="29.314" y="72.5286" width="10.9893" height="11.7979" transform="rotate(-11.8856 29.314 72.5286)" fill="#4AB6D1"/>
<rect x="54.406" y="67.2474" width="10.9893" height="11.7979" transform="rotate(-11.8856 54.406 67.2474)" fill="#4AB6D1"/>
<rect x="79.498" y="61.9664" width="10.9893" height="11.7979" transform="rotate(-11.8856 79.498 61.9664)" fill="#4AB6D1"/>
</g>
<defs>
<filter id="filter0_d_1_192" x="0.204651" y="3.74029" width="115.647" height="110.209" filterUnits="userSpaceOnUse" color-interpolation-filters="sRGB">
<feFlood flood-opacity="0" result="BackgroundImageFix"/>
<feColorMatrix in="SourceAlpha" type="matrix" values="0 0 0 0 0 0 0 0 0 0 0 0 0 0 0 0 0 0 127 0" result="hardAlpha"/>
<feOffset dy="4"/>
<feGaussianBlur stdDeviation="2"/>
<feComposite in2="hardAlpha" operator="out"/>
<feColorMatrix type="matrix" values="0 0 0 0 0 0 0 0 0 0 0 0 0 0 0 0 0 0 0.25 0"/>
<feBlend mode="normal" in2="BackgroundImageFix" result="effect1_dropShadow_1_192"/>
<feBlend mode="normal" in="SourceGraphic" in2="effect1_dropShadow_1_192" result="shape"/>
</filter>
</defs>
</svg>
