<svg width="116" height="114" viewBox="0 0 116 114" fill="none" xmlns="http://www.w3.org/2000/svg">
<ellipse cx="72.5535" cy="13.5307" rx="5.08764" ry="7.6468" transform="rotate(-11.8856 72.5535 13.5307)" fill="#4AB6D1"/>
<g filter="url(#filter0_d_347_308)">
<mask id="path-2-inside-1_347_308" fill="white">
<path d="M4.52932 41.7223C2.8231 33.6157 8.01169 25.6608 16.1184 23.9546L82.7483 9.93088C90.855 8.22466 98.8099 13.4132 100.516 21.5199L111.527 73.8332C113.233 81.9398 108.044 89.8947 99.9375 91.6009L33.3075 105.625C25.2009 107.331 17.246 102.142 15.5397 94.0356L4.52932 41.7223Z"/>
</mask>
<path d="M-3.45286 28.0737C-5.72782 17.2649 1.19029 6.65831 11.9992 4.38335L78.6292 -9.64033C89.438 -11.9153 100.045 -4.99718 102.32 5.81171L96.6531 27.4425C96.6531 27.4425 92.272 28.3646 86.8675 29.5021L20.2375 43.5258C14.8331 44.6633 10.4519 45.5854 10.4519 45.5854L-3.45286 28.0737ZM116.419 72.8034C118.694 83.6122 111.776 94.2188 100.967 96.4937L34.3373 110.517C23.5284 112.792 12.9219 105.874 10.6469 95.0654L20.4325 93.0058C21.57 98.4102 26.8733 101.869 32.2777 100.732L98.9077 86.7081C104.312 85.5707 107.771 80.2674 106.634 74.8629L116.419 72.8034ZM34.3373 110.517C23.5284 112.792 12.9219 105.874 10.6469 95.0654L-3.45286 28.0737C-5.72782 17.2649 1.19029 6.65831 11.9992 4.38335L20.2375 43.5258C14.8331 44.6633 10.4519 45.5854 10.4519 45.5854L20.4325 93.0058C21.57 98.4102 26.8733 101.869 32.2777 100.732L34.3373 110.517ZM78.6292 -9.64033C89.438 -11.9153 100.045 -4.99718 102.32 5.81171L116.419 72.8034C118.694 83.6122 111.776 94.2188 100.967 96.4937L98.9077 86.7081C104.312 85.5707 107.771 80.2674 106.634 74.8629L96.6531 27.4425C96.6531 27.4425 92.272 28.3646 86.8675 29.5021L78.6292 -9.64033Z" fill="#4AB6D1" mask="url(#path-2-inside-1_347_308)"/>
<ellipse cx="21.6883" cy="23.4522" rx="4.68063" ry="7.6468" transform="rotate(-11.8856 21.6883 23.4522)" fill="#4AB6D1"/>
<rect x="23.7343" y="46.0181" width="10.9893" height="11.7979" transform="rotate(-11.8856 23.7343 46.0181)" fill="#4AB6D1"/>
<rect x="48.8262" y="40.7368" width="10.9893" height="11.7979" transform="rotate(-11.8856 48.8262 40.7368)" fill="#4AB6D1"/>
<rect x="73.9182" y="35.4558" width="10.9893" height="11.7979" transform="rotate(-11.8856 73.9182 35.4558)" fill="#4AB6D1"/>
<rect x="29.314" y="72.5288" width="10.9893" height="11.7979" transform="rotate(-11.8856 29.314 72.5288)" fill="#4AB6D1"/>
<rect x="54.4061" y="67.2476" width="10.9893" height="11.7979" transform="rotate(-11.8856 54.4061 67.2476)" fill="#4AB6D1"/>
<rect x="79.498" y="61.9666" width="10.9893" height="11.7979" transform="rotate(-11.8856 79.498 61.9666)" fill="#4AB6D1"/>
</g>
<defs>
<filter id="filter0_d_347_308" x="0.204712" y="9.6062" width="115.646" height="104.343" filterUnits="userSpaceOnUse" color-interpolation-filters="sRGB">
<feFlood flood-opacity="0" result="BackgroundImageFix"/>
<feColorMatrix in="SourceAlpha" type="matrix" values="0 0 0 0 0 0 0 0 0 0 0 0 0 0 0 0 0 0 127 0" result="hardAlpha"/>
<feOffset dy="4"/>
<feGaussianBlur stdDeviation="2"/>
<feComposite in2="hardAlpha" operator="out"/>
<feColorMatrix type="matrix" values="0 0 0 0 0 0 0 0 0 0 0 0 0 0 0 0 0 0 0.25 0"/>
<feBlend mode="normal" in2="BackgroundImageFix" result="effect1_dropShadow_347_308"/>
<feBlend mode="normal" in="SourceGraphic" in2="effect1_dropShadow_347_308" result="shape"/>
</filter>
</defs>
</svg>
