<svg width="1200" height="784" viewBox="0 0 1200 784" fill="none" xmlns="http://www.w3.org/2000/svg">
<rect width="1200" height="784" fill="#94CDFF"/>
<g filter="url(#filter0_d_1_180)">
<mask id="path-2-inside-1_1_180" fill="white">
<path d="M71.7868 56.8006C75.3913 49.3416 84.36 46.2169 91.819 49.8214L153.126 79.4474C160.585 83.0519 163.709 92.0206 160.105 99.4796L136.845 147.613C133.24 155.072 124.272 158.197 116.813 154.593L55.5057 124.967C48.0467 121.362 44.922 112.393 48.5265 104.934L71.7868 56.8006Z"/>
</mask>
<path d="M73.8114 41.1194C78.6173 31.1741 90.5757 27.0078 100.521 31.8138L161.828 61.4397C171.773 66.2457 175.939 78.204 171.133 88.1494L153.428 101.806C153.428 101.806 149.396 99.858 144.424 97.455L83.117 67.8291C78.1443 65.4261 74.1132 63.4781 74.1132 63.4781L73.8114 41.1194ZM141.347 149.789C136.541 159.734 124.582 163.901 114.637 159.095L53.3302 129.469C43.3849 124.663 39.2186 112.704 44.0246 102.759L53.0284 107.11C50.6254 112.083 52.7086 118.062 57.6812 120.465L118.988 150.091C123.961 152.494 129.94 150.411 132.343 145.438L141.347 149.789ZM53.3302 129.469C43.3849 124.663 39.2186 112.704 44.0246 102.759L73.8114 41.1194C78.6173 31.1741 90.5757 27.0078 100.521 31.8138L83.117 67.8291C78.1443 65.4261 74.1132 63.4781 74.1132 63.4781L53.0284 107.11C50.6254 112.083 52.7086 118.062 57.6812 120.465L53.3302 129.469ZM161.828 61.4397C171.773 66.2457 175.939 78.204 171.133 88.1494L141.347 149.789C136.541 159.734 124.582 163.901 114.637 159.095L118.988 150.091C123.961 152.494 129.94 150.411 132.343 145.438L153.428 101.806C153.428 101.806 149.396 99.858 144.424 97.455L161.828 61.4397Z" fill="#4AB6D1" mask="url(#path-2-inside-1_1_180)"/>
<ellipse cx="96.5346" cy="52.8281" rx="4.68063" ry="7.6468" transform="rotate(25.7917 96.5346 52.8281)" fill="#4AB6D1"/>
<ellipse cx="149.672" cy="78.5064" rx="5.08764" ry="7.6468" transform="rotate(25.7917 149.672 78.5064)" fill="#4AB6D1"/>
<rect x="84.3613" y="71.9387" width="10.9893" height="11.7979" transform="rotate(25.7917 84.3613 71.9387)" fill="#4AB6D1"/>
<rect x="107.449" y="83.0955" width="10.9893" height="11.7979" transform="rotate(25.7917 107.449 83.0955)" fill="#4AB6D1"/>
<rect x="130.536" y="94.2522" width="10.9893" height="11.7979" transform="rotate(25.7917 130.536 94.2522)" fill="#4AB6D1"/>
<rect x="72.5738" y="96.3315" width="10.9893" height="11.7979" transform="rotate(25.7917 72.5738 96.3315)" fill="#4AB6D1"/>
<rect x="95.6611" y="107.488" width="10.9893" height="11.7979" transform="rotate(25.7917 95.6611 107.488)" fill="#4AB6D1"/>
<rect x="118.748" y="118.645" width="10.9893" height="11.7979" transform="rotate(25.7917 118.748 118.645)" fill="#4AB6D1"/>
</g>
<g filter="url(#filter1_d_1_180)">
<mask id="path-12-inside-2_1_180" fill="white">
<path d="M33.5293 379.722C31.8231 371.616 37.0117 363.661 45.1183 361.955L111.748 347.931C119.855 346.225 127.81 351.413 129.516 359.52L140.527 411.833C142.233 419.94 137.044 427.895 128.937 429.601L62.3075 443.625C54.2008 445.331 46.2459 440.142 44.5397 432.036L33.5293 379.722Z"/>
</mask>
<path d="M25.5471 366.074C23.2721 355.265 30.1903 344.658 40.9991 342.383L107.629 328.36C118.438 326.085 129.045 333.003 131.32 343.812L125.653 365.443C125.653 365.443 121.272 366.365 115.867 367.502L49.2375 381.526C43.8331 382.663 39.4519 383.585 39.4519 383.585L25.5471 366.074ZM145.419 410.803C147.694 421.612 140.776 432.219 129.967 434.494L63.3373 448.517C52.5284 450.792 41.9219 443.874 39.6469 433.065L49.4325 431.006C50.57 436.41 55.8733 439.869 61.2777 438.732L127.908 424.708C133.312 423.571 136.771 418.267 135.634 412.863L145.419 410.803ZM63.3373 448.517C52.5284 450.792 41.9219 443.874 39.6469 433.065L25.5471 366.074C23.2721 355.265 30.1903 344.658 40.9991 342.383L49.2375 381.526C43.8331 382.663 39.4519 383.585 39.4519 383.585L49.4325 431.006C50.57 436.41 55.8733 439.869 61.2777 438.732L63.3373 448.517ZM107.629 328.36C118.438 326.085 129.045 333.003 131.32 343.812L145.419 410.803C147.694 421.612 140.776 432.219 129.967 434.494L127.908 424.708C133.312 423.571 136.771 418.267 135.634 412.863L125.653 365.443C125.653 365.443 121.272 366.365 115.867 367.502L107.629 328.36Z" fill="#4AB6D1" mask="url(#path-12-inside-2_1_180)"/>
<ellipse cx="50.6884" cy="361.452" rx="4.68063" ry="7.6468" transform="rotate(-11.8856 50.6884 361.452)" fill="#4AB6D1"/>
<ellipse cx="108.44" cy="349.297" rx="5.08764" ry="7.6468" transform="rotate(-11.8856 108.44 349.297)" fill="#4AB6D1"/>
<rect x="52.7343" y="384.018" width="10.9893" height="11.7979" transform="rotate(-11.8856 52.7343 384.018)" fill="#4AB6D1"/>
<rect x="77.8263" y="378.737" width="10.9893" height="11.7979" transform="rotate(-11.8856 77.8263 378.737)" fill="#4AB6D1"/>
<rect x="102.918" y="373.456" width="10.9893" height="11.7979" transform="rotate(-11.8856 102.918 373.456)" fill="#4AB6D1"/>
<rect x="58.314" y="410.529" width="10.9893" height="11.7979" transform="rotate(-11.8856 58.314 410.529)" fill="#4AB6D1"/>
<rect x="83.406" y="405.247" width="10.9893" height="11.7979" transform="rotate(-11.8856 83.406 405.247)" fill="#4AB6D1"/>
<rect x="108.498" y="399.966" width="10.9893" height="11.7979" transform="rotate(-11.8856 108.498 399.966)" fill="#4AB6D1"/>
</g>
<ellipse cx="1145.55" cy="659.531" rx="5.08764" ry="7.6468" transform="rotate(-11.8856 1145.55 659.531)" fill="#4AB6D1"/>
<g filter="url(#filter2_d_1_180)">
<mask id="path-23-inside-3_1_180" fill="white">
<path d="M1077.53 687.722C1075.82 679.616 1081.01 671.661 1089.12 669.955L1155.75 655.931C1163.86 654.225 1171.81 659.413 1173.52 667.52L1184.53 719.833C1186.23 727.94 1181.04 735.895 1172.94 737.601L1106.31 751.625C1098.2 753.331 1090.25 748.142 1088.54 740.036L1077.53 687.722Z"/>
</mask>
<path d="M1069.55 674.074C1067.27 663.265 1074.19 652.658 1085 650.383L1151.63 636.36C1162.44 634.085 1173.04 641.003 1175.32 651.812L1169.65 673.443C1169.65 673.443 1165.27 674.365 1159.87 675.502L1093.24 689.526C1087.83 690.663 1083.45 691.585 1083.45 691.585L1069.55 674.074ZM1189.42 718.803C1191.69 729.612 1184.78 740.219 1173.97 742.494L1107.34 756.517C1096.53 758.792 1085.92 751.874 1083.65 741.065L1093.43 739.006C1094.57 744.41 1099.87 747.869 1105.28 746.732L1171.91 732.708C1177.31 731.571 1180.77 726.267 1179.63 720.863L1189.42 718.803ZM1107.34 756.517C1096.53 758.792 1085.92 751.874 1083.65 741.065L1069.55 674.074C1067.27 663.265 1074.19 652.658 1085 650.383L1093.24 689.526C1087.83 690.663 1083.45 691.585 1083.45 691.585L1093.43 739.006C1094.57 744.41 1099.87 747.869 1105.28 746.732L1107.34 756.517ZM1151.63 636.36C1162.44 634.085 1173.04 641.003 1175.32 651.812L1189.42 718.803C1191.69 729.612 1184.78 740.219 1173.97 742.494L1171.91 732.708C1177.31 731.571 1180.77 726.267 1179.63 720.863L1169.65 673.443C1169.65 673.443 1165.27 674.365 1159.87 675.502L1151.63 636.36Z" fill="#4AB6D1" mask="url(#path-23-inside-3_1_180)"/>
<ellipse cx="1094.69" cy="669.452" rx="4.68063" ry="7.6468" transform="rotate(-11.8856 1094.69 669.452)" fill="#4AB6D1"/>
<rect x="1096.73" y="692.018" width="10.9893" height="11.7979" transform="rotate(-11.8856 1096.73 692.018)" fill="#4AB6D1"/>
<rect x="1121.83" y="686.737" width="10.9893" height="11.7979" transform="rotate(-11.8856 1121.83 686.737)" fill="#4AB6D1"/>
<rect x="1146.92" y="681.456" width="10.9893" height="11.7979" transform="rotate(-11.8856 1146.92 681.456)" fill="#4AB6D1"/>
<rect x="1102.31" y="718.529" width="10.9893" height="11.7979" transform="rotate(-11.8856 1102.31 718.529)" fill="#4AB6D1"/>
<rect x="1127.41" y="713.248" width="10.9893" height="11.7979" transform="rotate(-11.8856 1127.41 713.248)" fill="#4AB6D1"/>
<rect x="1152.5" y="707.967" width="10.9893" height="11.7979" transform="rotate(-11.8856 1152.5 707.967)" fill="#4AB6D1"/>
</g>
<defs>
<filter id="filter0_d_1_180" x="43.0288" y="45.6462" width="122.574" height="118.444" filterUnits="userSpaceOnUse" color-interpolation-filters="sRGB">
<feFlood flood-opacity="0" result="BackgroundImageFix"/>
<feColorMatrix in="SourceAlpha" type="matrix" values="0 0 0 0 0 0 0 0 0 0 0 0 0 0 0 0 0 0 127 0" result="hardAlpha"/>
<feOffset dy="4"/>
<feGaussianBlur stdDeviation="2"/>
<feComposite in2="hardAlpha" operator="out"/>
<feColorMatrix type="matrix" values="0 0 0 0 0 0 0 0 0 0 0 0 0 0 0 0 0 0 0.25 0"/>
<feBlend mode="normal" in2="BackgroundImageFix" result="effect1_dropShadow_1_180"/>
<feBlend mode="normal" in="SourceGraphic" in2="effect1_dropShadow_1_180" result="shape"/>
</filter>
<filter id="filter1_d_1_180" x="29.2047" y="341.74" width="115.647" height="110.209" filterUnits="userSpaceOnUse" color-interpolation-filters="sRGB">
<feFlood flood-opacity="0" result="BackgroundImageFix"/>
<feColorMatrix in="SourceAlpha" type="matrix" values="0 0 0 0 0 0 0 0 0 0 0 0 0 0 0 0 0 0 127 0" result="hardAlpha"/>
<feOffset dy="4"/>
<feGaussianBlur stdDeviation="2"/>
<feComposite in2="hardAlpha" operator="out"/>
<feColorMatrix type="matrix" values="0 0 0 0 0 0 0 0 0 0 0 0 0 0 0 0 0 0 0.25 0"/>
<feBlend mode="normal" in2="BackgroundImageFix" result="effect1_dropShadow_1_180"/>
<feBlend mode="normal" in="SourceGraphic" in2="effect1_dropShadow_1_180" result="shape"/>
</filter>
<filter id="filter2_d_1_180" x="1073.2" y="655.606" width="115.646" height="104.343" filterUnits="userSpaceOnUse" color-interpolation-filters="sRGB">
<feFlood flood-opacity="0" result="BackgroundImageFix"/>
<feColorMatrix in="SourceAlpha" type="matrix" values="0 0 0 0 0 0 0 0 0 0 0 0 0 0 0 0 0 0 127 0" result="hardAlpha"/>
<feOffset dy="4"/>
<feGaussianBlur stdDeviation="2"/>
<feComposite in2="hardAlpha" operator="out"/>
<feColorMatrix type="matrix" values="0 0 0 0 0 0 0 0 0 0 0 0 0 0 0 0 0 0 0.25 0"/>
<feBlend mode="normal" in2="BackgroundImageFix" result="effect1_dropShadow_1_180"/>
<feBlend mode="normal" in="SourceGraphic" in2="effect1_dropShadow_1_180" result="shape"/>
</filter>
</defs>
</svg>
