<svg width="20" height="20" viewBox="0 0 20 20" fill="none" xmlns="http://www.w3.org/2000/svg">
<path d="M14.7805 0H5.19512C2.34146 0 0 2.2673 0 5.08353V14.9165C0 17.7088 2.31707 20 5.19512 20H14.8049C17.6585 20 20 17.7327 20 14.9165V5.05967C19.9756 2.2673 17.6585 0 14.7805 0ZM16.5122 16.611H12.7561C12.7317 16.611 12.7073 16.611 12.7073 16.5871L9.19512 11.599H9.17073C7.7561 13.1981 6.36585 14.7733 5 16.3246C4.92683 16.42 4.82927 16.4916 4.7561 16.5632C4.73171 16.5871 4.70732 16.5871 4.68293 16.5871H3.65854C3.63415 16.5871 3.60976 16.5871 3.63415 16.5632L8.63415 10.8831C8.65854 10.8592 8.65854 10.8353 8.63415 10.8115L3.65854 3.72315V3.69928H7.43902C7.46341 3.69928 7.46341 3.69928 7.4878 3.72315L10.8049 8.42482C10.8049 8.42482 10.8049 8.42482 10.8293 8.42482L14.9512 3.72315C14.9756 3.69928 15 3.69928 15.0244 3.69928H16.0488C16.0976 3.69928 16.0976 3.72315 16.0732 3.74702L11.3415 9.11695C11.3171 9.14081 11.3171 9.16468 11.3415 9.18854L16.5366 16.5871C16.5366 16.5871 16.5366 16.611 16.5122 16.611Z" fill="black"/>
<path d="M6.99997 4.55859H5.36582C5.34143 4.55859 5.34143 4.58246 5.34143 4.60633L13.1951 15.7519C13.1951 15.7519 13.1951 15.7519 13.2195 15.7519H14.8292C14.8536 15.7519 14.8536 15.728 14.8536 15.7042L6.99997 4.55859Z" fill="black"/>
</svg>
